<?xml version="1.0" encoding="utf-8"?>
<!-- Generator: Adobe Illustrator 25.4.1, SVG Export Plug-In . SVG Version: 6.00 Build 0)  -->
<svg version="1.1" id="Calque_1" xmlns="http://www.w3.org/2000/svg" xmlns:xlink="http://www.w3.org/1999/xlink" x="0px" y="0px"
	 viewBox="0 0 9 13" style="enable-background:new 0 0 9 13;" xml:space="preserve">
<path d="M0.54,11.19c0,0.46,0.17,0.92,0.53,1.27c0.7,0.7,1.83,0.7,2.53,0l4.69-4.69C8.33,7.73,8.37,7.68,8.4,7.64
	C8.42,7.62,8.43,7.6,8.45,7.58c0.02-0.03,0.04-0.06,0.06-0.08c0.02-0.02,0.03-0.05,0.04-0.07C8.57,7.4,8.58,7.37,8.6,7.34
	c0.01-0.02,0.02-0.05,0.04-0.08c0.01-0.03,0.03-0.05,0.04-0.08C8.68,7.16,8.69,7.14,8.7,7.11c0.01-0.03,0.02-0.06,0.03-0.09
	c0.01-0.02,0.01-0.05,0.02-0.07c0.01-0.03,0.02-0.06,0.02-0.1c0-0.03,0.01-0.06,0.01-0.08c0-0.03,0.01-0.06,0.01-0.09l0,0
	c0,0,0,0,0,0c0-0.05,0.01-0.1,0.01-0.14c0-0.01,0-0.02,0-0.03c0-0.01,0-0.02,0-0.03c0-0.05,0-0.1-0.01-0.15
	c0-0.03-0.01-0.06-0.01-0.09c0-0.03-0.01-0.06-0.01-0.09C8.77,6.12,8.76,6.09,8.75,6.06C8.75,6.03,8.74,6.01,8.73,5.98
	C8.72,5.95,8.71,5.92,8.7,5.89C8.69,5.87,8.68,5.84,8.67,5.81C8.66,5.79,8.65,5.76,8.64,5.73C8.62,5.71,8.61,5.68,8.6,5.66
	C8.58,5.63,8.57,5.61,8.55,5.58C8.54,5.56,8.52,5.53,8.51,5.51C8.49,5.48,8.47,5.45,8.45,5.43C8.43,5.41,8.42,5.38,8.4,5.36
	C8.37,5.32,8.33,5.27,8.28,5.23L3.6,0.55c-0.7-0.7-1.84-0.7-2.53,0C0.7,0.91,0.52,1.4,0.54,1.87"/>
</svg>
